<?xml version="1.0" encoding="utf-8"?>
<!-- Generator: Adobe Illustrator 16.0.3, SVG Export Plug-In . SVG Version: 6.00 Build 0)  -->
<!DOCTYPE svg PUBLIC "-//W3C//DTD SVG 1.1//EN" "http://www.w3.org/Graphics/SVG/1.1/DTD/svg11.dtd">
<svg version="1.1" id="Layer_1" xmlns="http://www.w3.org/2000/svg" xmlns:xlink="http://www.w3.org/1999/xlink" x="0px" y="0px"
	 width="173px" height="31px" viewBox="0 0 173 31" enable-background="new 0 0 173 31" xml:space="preserve">
<g>
	<g>
		<g>
			
				<polygon fill-rule="evenodd" clip-rule="evenodd" fill="#F1F2F2" stroke="#F1F2F2" stroke-width="0.25" stroke-miterlimit="10" points="
				95.736,12.515 95.736,11.597 100.921,11.597 100.921,12.515 98.813,12.515 98.813,21.046 97.85,21.046 97.85,12.515 			"/>
			
				<polygon fill-rule="evenodd" clip-rule="evenodd" fill="#F1F2F2" stroke="#F1F2F2" stroke-width="0.25" stroke-miterlimit="3.8637" points="
				95.736,12.515 95.736,11.597 100.921,11.597 100.921,12.515 98.813,12.515 98.813,21.046 97.85,21.046 97.85,12.515 			"/>
		</g>
		<g>
			
				<polygon fill-rule="evenodd" clip-rule="evenodd" fill="#F1F2F2" stroke="#F1F2F2" stroke-width="0.25" stroke-miterlimit="10" points="
				102.939,11.597 108.354,11.597 108.354,12.527 103.884,12.527 103.884,15.483 108.316,15.483 108.316,16.408 103.884,16.408 
				103.884,20.114 108.316,20.114 108.316,21.046 102.939,21.046 			"/>
			
				<polygon fill-rule="evenodd" clip-rule="evenodd" fill="#F1F2F2" stroke="#F1F2F2" stroke-width="0.25" stroke-miterlimit="3.8637" points="
				102.939,11.597 108.354,11.597 108.354,12.527 103.884,12.527 103.884,15.483 108.316,15.483 108.316,16.408 103.884,16.408 
				103.884,20.114 108.316,20.114 108.316,21.046 102.939,21.046 			"/>
		</g>
		<g>
			
				<polygon fill-rule="evenodd" clip-rule="evenodd" fill="#F1F2F2" stroke="#F1F2F2" stroke-width="0.25" stroke-miterlimit="10" points="
				110.645,11.597 111.595,11.597 111.595,20.134 115.225,20.134 115.225,21.046 110.645,21.046 			"/>
			
				<polygon fill-rule="evenodd" clip-rule="evenodd" fill="#F1F2F2" stroke="#F1F2F2" stroke-width="0.25" stroke-miterlimit="3.8637" points="
				110.645,11.597 111.595,11.597 111.595,20.134 115.225,20.134 115.225,21.046 110.645,21.046 			"/>
		</g>
		<g>
			
				<polygon fill-rule="evenodd" clip-rule="evenodd" fill="#F1F2F2" stroke="#F1F2F2" stroke-width="0.25" stroke-miterlimit="10" points="
				117.386,11.597 122.801,11.597 122.801,12.527 118.33,12.527 118.33,15.483 122.762,15.483 122.762,16.408 118.33,16.408 
				118.33,20.114 122.762,20.114 122.762,21.046 117.386,21.046 			"/>
			
				<polygon fill-rule="evenodd" clip-rule="evenodd" fill="#F1F2F2" stroke="#F1F2F2" stroke-width="0.25" stroke-miterlimit="3.8637" points="
				117.386,11.597 122.801,11.597 122.801,12.527 118.33,12.527 118.33,15.483 122.762,15.483 122.762,16.408 118.33,16.408 
				118.33,20.114 122.762,20.114 122.762,21.046 117.386,21.046 			"/>
		</g>
		<g>
			
				<polygon fill-rule="evenodd" clip-rule="evenodd" fill="#F1F2F2" stroke="#F1F2F2" stroke-width="0.25" stroke-miterlimit="10" points="
				124.659,21.046 126.003,11.597 126.156,11.597 129.998,19.35 133.801,11.597 133.955,11.597 135.311,21.046 134.379,21.046 
				133.454,14.288 130.114,21.046 129.876,21.046 126.491,14.236 125.572,21.046 			"/>
			
				<polygon fill-rule="evenodd" clip-rule="evenodd" fill="#F1F2F2" stroke="#F1F2F2" stroke-width="0.25" stroke-miterlimit="3.8637" points="
				124.659,21.046 126.003,11.597 126.156,11.597 129.998,19.35 133.801,11.597 133.955,11.597 135.311,21.046 134.379,21.046 
				133.454,14.288 130.114,21.046 129.876,21.046 126.491,14.236 125.572,21.046 			"/>
		</g>
		<g>
			<path fill-rule="evenodd" clip-rule="evenodd" fill="#F1F2F2" stroke="#F1F2F2" stroke-width="0.25" stroke-miterlimit="10" d="
				M141.698,11.597l4.406,9.449h-1.015l-1.483-3.109h-4.073l-1.478,3.109h-1.053l4.464-9.449H141.698z M141.583,13.601l-1.626,3.424
				h3.231L141.583,13.601z"/>
			
				<path fill-rule="evenodd" clip-rule="evenodd" fill="#F1F2F2" stroke="#F1F2F2" stroke-width="0.25" stroke-miterlimit="3.8637" d="
				M141.698,11.597l4.406,9.449h-1.015l-1.483-3.109h-4.073l-1.478,3.109h-1.053l4.464-9.449H141.698z M141.583,13.601l-1.626,3.424
				h3.231L141.583,13.601z"/>
		</g>
		<g>
			
				<polygon fill-rule="evenodd" clip-rule="evenodd" fill="#F1F2F2" stroke="#F1F2F2" stroke-width="0.25" stroke-miterlimit="10" points="
				146.224,12.515 146.224,11.597 151.408,11.597 151.408,12.515 149.301,12.515 149.301,21.046 148.338,21.046 148.338,12.515 			
				"/>
			
				<polygon fill-rule="evenodd" clip-rule="evenodd" fill="#F1F2F2" stroke="#F1F2F2" stroke-width="0.25" stroke-miterlimit="3.8637" points="
				146.224,12.515 146.224,11.597 151.408,11.597 151.408,12.515 149.301,12.515 149.301,21.046 148.338,21.046 148.338,12.515 			
				"/>
		</g>
		<g>
			
				<rect x="153.286" y="11.597" fill-rule="evenodd" clip-rule="evenodd" fill="#F1F2F2" stroke="#F1F2F2" stroke-width="0.25" stroke-miterlimit="10" width="0.944" height="9.449"/>
			
				<rect x="153.286" y="11.597" fill-rule="evenodd" clip-rule="evenodd" fill="#F1F2F2" stroke="#F1F2F2" stroke-width="0.25" stroke-miterlimit="3.8637" width="0.944" height="9.449"/>
		</g>
		<g>
			<path fill-rule="evenodd" clip-rule="evenodd" fill="#F1F2F2" stroke="#F1F2F2" stroke-width="0.25" stroke-miterlimit="10" d="
				M165.854,13.351l-0.745,0.571c-0.411-0.535-0.905-0.939-1.483-1.214c-0.574-0.278-1.206-0.418-1.896-0.418
				c-0.753,0-1.451,0.183-2.094,0.546c-0.643,0.36-1.142,0.846-1.497,1.458c-0.351,0.608-0.526,1.294-0.526,2.056
				c0,1.152,0.394,2.114,1.182,2.885c0.793,0.771,1.79,1.156,2.994,1.156c1.322,0,2.43-0.519,3.32-1.555l0.745,0.565
				c-0.471,0.6-1.06,1.064-1.767,1.394c-0.702,0.325-1.488,0.488-2.357,0.488c-1.653,0-2.957-0.55-3.912-1.65
				c-0.801-0.93-1.201-2.052-1.201-3.366c0-1.384,0.484-2.546,1.452-3.488c0.972-0.946,2.188-1.42,3.648-1.42
				c0.882,0,1.679,0.176,2.39,0.527C164.817,12.232,165.4,12.721,165.854,13.351z"/>
			
				<path fill-rule="evenodd" clip-rule="evenodd" fill="#F1F2F2" stroke="#F1F2F2" stroke-width="0.25" stroke-miterlimit="3.8637" d="
				M165.854,13.351l-0.745,0.571c-0.411-0.535-0.905-0.939-1.483-1.214c-0.574-0.278-1.206-0.418-1.896-0.418
				c-0.753,0-1.451,0.183-2.094,0.546c-0.643,0.36-1.142,0.846-1.497,1.458c-0.351,0.608-0.526,1.294-0.526,2.056
				c0,1.152,0.394,2.114,1.182,2.885c0.793,0.771,1.79,1.156,2.994,1.156c1.322,0,2.43-0.519,3.32-1.555l0.745,0.565
				c-0.471,0.6-1.06,1.064-1.767,1.394c-0.702,0.325-1.488,0.488-2.357,0.488c-1.653,0-2.957-0.55-3.912-1.65
				c-0.801-0.93-1.201-2.052-1.201-3.366c0-1.384,0.484-2.546,1.452-3.488c0.972-0.946,2.188-1.42,3.648-1.42
				c0.882,0,1.679,0.176,2.39,0.527C164.817,12.232,165.4,12.721,165.854,13.351z"/>
		</g>
		<g>
			<path fill-rule="evenodd" clip-rule="evenodd" fill="#F1F2F2" stroke="#F1F2F2" stroke-width="0.25" stroke-miterlimit="10" d="
				M167.43,19.286l0.803-0.482c0.565,1.041,1.219,1.562,1.96,1.562c0.316,0,0.614-0.073,0.893-0.219
				c0.278-0.149,0.49-0.349,0.636-0.598c0.146-0.248,0.219-0.512,0.219-0.79c0-0.316-0.107-0.627-0.321-0.931
				c-0.295-0.421-0.835-0.926-1.619-1.517c-0.788-0.596-1.278-1.026-1.471-1.291c-0.334-0.445-0.501-0.928-0.501-1.445
				c0-0.412,0.099-0.786,0.295-1.124c0.197-0.339,0.474-0.604,0.829-0.797c0.36-0.196,0.749-0.296,1.169-0.296
				c0.445,0,0.861,0.111,1.246,0.334c0.39,0.219,0.801,0.624,1.233,1.215l-0.771,0.584c-0.355-0.471-0.659-0.781-0.912-0.931
				c-0.249-0.15-0.521-0.226-0.816-0.226c-0.381,0-0.693,0.116-0.938,0.347c-0.24,0.231-0.359,0.517-0.359,0.855
				c0,0.205,0.043,0.403,0.128,0.597c0.086,0.192,0.242,0.402,0.47,0.63c0.124,0.119,0.53,0.435,1.22,0.943
				c0.818,0.604,1.379,1.142,1.683,1.613c0.305,0.471,0.457,0.944,0.457,1.419c0,0.686-0.262,1.281-0.784,1.786
				c-0.518,0.505-1.149,0.758-1.895,0.758c-0.574,0-1.095-0.151-1.562-0.456C168.254,20.52,167.824,20.005,167.43,19.286z"/>
			
				<path fill-rule="evenodd" clip-rule="evenodd" fill="#F1F2F2" stroke="#F1F2F2" stroke-width="0.25" stroke-miterlimit="3.8637" d="
				M167.43,19.286l0.803-0.482c0.565,1.041,1.219,1.562,1.96,1.562c0.316,0,0.614-0.073,0.893-0.219
				c0.278-0.149,0.49-0.349,0.636-0.598c0.146-0.248,0.219-0.512,0.219-0.79c0-0.316-0.107-0.627-0.321-0.931
				c-0.295-0.421-0.835-0.926-1.619-1.517c-0.788-0.596-1.278-1.026-1.471-1.291c-0.334-0.445-0.501-0.928-0.501-1.445
				c0-0.412,0.099-0.786,0.295-1.124c0.197-0.339,0.474-0.604,0.829-0.797c0.36-0.196,0.749-0.296,1.169-0.296
				c0.445,0,0.861,0.111,1.246,0.334c0.39,0.219,0.801,0.624,1.233,1.215l-0.771,0.584c-0.355-0.471-0.659-0.781-0.912-0.931
				c-0.249-0.15-0.521-0.226-0.816-0.226c-0.381,0-0.693,0.116-0.938,0.347c-0.24,0.231-0.359,0.517-0.359,0.855
				c0,0.205,0.043,0.403,0.128,0.597c0.086,0.192,0.242,0.402,0.47,0.63c0.124,0.119,0.53,0.435,1.22,0.943
				c0.818,0.604,1.379,1.142,1.683,1.613c0.305,0.471,0.457,0.944,0.457,1.419c0,0.686-0.262,1.281-0.784,1.786
				c-0.518,0.505-1.149,0.758-1.895,0.758c-0.574,0-1.095-0.151-1.562-0.456C168.254,20.52,167.824,20.005,167.43,19.286z"/>
		</g>
	</g>
	<g>
		<g>
			
				<line fill-rule="evenodd" clip-rule="evenodd" fill="#F1F2F2" stroke="#F1F2F2" stroke-miterlimit="3.8637" x1="90.85" y1="8.382" x2="90.85" y2="23.92"/>
		</g>
	</g>
	<g>
		<path fill="#F1F2F2" d="M69.468,1.467c2.672-2.672,4.998-1.087,5.859,0c1.953,2.467,1.113,4.66,0.068,4.66
			c-1.199,0-0.925-1.542-3.169-1.542c-1.52,0-6.548,5.589-8.932,8.279c-0.938,1.059-1.298,1.849-1.042,2.563
			c0.72,2,3.116,6.202,4.394,7.906c0.96,1.28,2.406,2.671,3.262,2.873c2.467,0.584,4.764-2.729,5.92-4.194
			c0.561-0.711,0.896-0.141,0.722,0.645c-0.611,2.757-3.854,7.889-8.493,6.557c-1.307-0.374-3.283-1.802-4.728-4.069
			c-1.353-2.123-2.861-4.685-3.645-6.054c-0.321-0.561-1.142-0.706-1.66-0.03c-0.959,1.25-5.867,7.489-6.412,8.211
			C50.192,29.157,49.237,31,47.61,31c-2.556,0-2.141-2.535-1.283-3.481c1.162-1.282,9.606-10.881,10.318-11.705
			c0.747-0.864,0.815-1.259,0.575-1.875c-0.743-1.911-1.25-2.878-2.197-4.99c-0.745-1.66-2.351-1.177-3.357-1.541
			c-0.595-0.216-1.426-1.383-0.774-2.822C51.629,2.952,54,2.144,56.564,4.598c1.463,1.4,1.975,3.446,2.891,5.15
			c0.559,1.041,0.997,1.505,2.082,0.317C65.408,5.827,68.028,2.907,69.468,1.467z M13.837,13.499
			c0.795-0.739,1.417-1.068,1.911-1.068c1.816,0,1.631,1.954,1.182,3.975c-0.343,1.541-0.981,4.53-1.226,5.53
			c-0.151,0.617-0.294,1.339,0.027,1.339c0.497,0,0.654-0.261,1.167-0.827c3.75-4.148,9.829-10.854,10.567-11.593
			c0.739-0.738,1.525-1.559,2.296-1.559c0.739,0,1.675,0.999,1.574,2.018c-0.056,0.567-1.385,1.031-2.519,3.231
			c-0.675,1.311-1.622,3.426-2.17,6.897c-0.512,3.238-0.24,4.933,1.522,4.933c2.273,0,7.417-4.643,10.655-8.874
			c0.416-0.543,0.845-0.531,0.966-0.17c0.114,0.341-0.065,0.872-0.633,1.781c-4.547,7.332-9.705,10.38-12.375,10.38
			c-2.159,0-3.859-2.288-3.291-6.722c0.284-2.272,0.938-3.697,1.201-5.149c0.114-0.625-0.073-0.753-0.682-0.057
			c-1.99,2.273-7.582,8.574-9.229,10.279c-1.137,1.137-1.716,1.648-2.285,1.648c-0.966,0-0.723-2.391-0.331-5.28
			c0.196-1.448,0.395-3.113,0.582-4.8c0.099-0.894,0.03-1.957-1.023-0.794c-1.129,1.247-6.694,7.475-8.29,9.298
			c-0.795,0.909-1.285,1.594-2.107,1.594c-0.795,0-1.61-1.165-1.153-3.883c0.249-1.475,1.338-7.946,2.982-9.591
			c1.485-1.484,3.687,0.352,1.854,2.596c-0.398,0.486-0.497,1.131-0.977,3.101c-0.366,1.502-0.156,1.971,0.6,1.182
			c3.109-3.246,4.074-4.244,6.92-7.195C13.086,14.128,13.042,14.238,13.837,13.499z"/>
	</g>
	<g>
		<g>
			<g>
				<path fill-rule="evenodd" clip-rule="evenodd" fill="#50B848" d="M43.839,7.754c-0.647,0.971-1.422,2.535-2.056,4.677
					c-0.326,1.102-0.484,2.745,2.261,0c3.135-3.135,3.837-3.135,3.837-4.677C47.881,6.315,45.586,5.134,43.839,7.754z"/>
			</g>
		</g>
	</g>
</g>
</svg>
